<?xml version="1.0" encoding="UTF-8"?>
<!DOCTYPE svg PUBLIC "-//W3C//DTD SVG 1.1//EN" "http://www.w3.org/Graphics/SVG/1.1/DTD/svg11.dtd">
<svg xmlns="http://www.w3.org/2000/svg" version="1.1" width="1241px" height="1754px" style="shape-rendering:geometricPrecision; text-rendering:geometricPrecision; image-rendering:optimizeQuality; fill-rule:evenodd; clip-rule:evenodd" xmlns:xlink="http://www.w3.org/1999/xlink">
<g><path style="opacity:0.996" fill="#fefefe" d="M 834.5,515.5 C 760.833,441.5 687.167,367.5 613.5,293.5C 703.299,203.201 793.299,113.035 883.5,23C 896.988,12.4883 910.988,11.8216 925.5,21C 1016.5,112 1107.5,203 1198.5,294C 1124.83,367.667 1051.17,441.333 977.5,515C 963.237,513.154 948.903,511.487 934.5,510C 900.94,507.687 867.607,509.521 834.5,515.5 Z"/></g>
<g><path style="opacity:0.995" fill="#d4d5d9" d="M 613.5,293.5 C 687.167,367.5 760.833,441.5 834.5,515.5C 709.788,543.738 620.622,615.738 567,731.5C 557.018,755.939 549.185,780.939 543.5,806.5C 469.5,732.833 395.5,659.167 321.5,585.5C 418.5,487.833 515.833,390.5 613.5,293.5 Z"/></g>
<g><path style="opacity:0.996" fill="#fefefe" d="M 321.5,585.5 C 395.5,659.167 469.5,732.833 543.5,806.5C 535.5,853.834 535.5,901.168 543.5,948.5C 469.5,1022.17 395.5,1095.83 321.5,1169.5C 230.868,1079.37 140.368,989.035 50,898.5C 39.751,883.964 40.0844,869.63 51,855.5C 141.035,765.299 231.201,675.299 321.5,585.5 Z"/></g>
<g><path style="opacity:0.997" fill="#fefffe" d="M 879.5,585.5 C 981.401,580.389 1065.23,616.389 1131,693.5C 1191.08,772.244 1209.08,859.91 1185,956.5C 1158.75,1043.42 1104.58,1106.25 1022.5,1145C 945.575,1177.61 868.242,1178.61 790.5,1148C 686.752,1100.89 627.252,1020.72 612,907.5C 604.232,803.404 639.732,717.57 718.5,650C 765.69,612.543 819.357,591.043 879.5,585.5 Z"/></g>
<g><path style="opacity:0.996" fill="#d4d5d9" d="M 543.5,948.5 C 567.78,1059.29 628.78,1143.13 726.5,1200C 760.528,1218.62 796.528,1231.79 834.5,1239.5C 760.833,1313.5 687.167,1387.5 613.5,1461.5C 515.833,1364.5 418.5,1267.17 321.5,1169.5C 395.5,1095.83 469.5,1022.17 543.5,948.5 Z"/></g>
<g><path style="opacity:0.996" fill="#fefefe" d="M 834.5,1239.5 C 867.924,1245.73 901.591,1247.56 935.5,1245C 949.586,1243.61 963.586,1241.94 977.5,1240C 1051.17,1313.67 1124.83,1387.33 1198.5,1461C 1107.17,1552.33 1015.83,1643.67 924.5,1735C 910.686,1742.87 897.353,1742.2 884.5,1733C 793.965,1642.63 703.632,1552.13 613.5,1461.5C 687.167,1387.5 760.833,1313.5 834.5,1239.5 Z"/></g>
</svg>
