<?xml version="1.0" encoding="UTF-8"?>
<svg version="1.1" viewBox="0 0 1682 1669" width="1280" height="1280" xmlns="http://www.w3.org/2000/svg">
<path transform="translate(827,281)" d="m0 0h25l36 2 34 4 38 7 28 7 29 9 25 9 26 11 29 14 20 11 23 14 16 11 18 13 16 13 11 9 12 11 8 7 28 28 7 8 12 14 11 14 12 16 13 19 12 19 13 23 9 17 14 31 11 29 10 31 10 40 6 34 4 35 1 15v60l-3 35-5 34-8 37-8 28-10 30-12 29-13 28-13 24-14 23-15 22-12 16-11 14-12 14-11 12-12 13-12 12-8 7-13 12-11 9-14 11-18 13-24 16-22 13-27 14-23 11-28 11-36 12-30 8-35 7-29 4-39 3h-47l-29-2-32-4-37-7-35-9-36-12-32-13-29-14-21-11-23-14-16-11v-3l278-278 15 2 22 1 17-1 23-4 17-5 21-9 14-8 17-12 13-12 10-10 13-17 12-21 8-19 6-21 3-18 1-14v-14l-2-21-5-22-5-15-12-25-10-15-11-14-16-16-17-13-19-11-18-8-15-5-18-4-16-2h-30l-19 2-279-279 1-3 20-13 22-13 27-14 21-10 33-13 30-10 34-9 36-7 30-4 23-2z" fill="#F42434"/>
<path transform="translate(384,521)" d="m0 0 4 2 277 277-2 20v29l2 20-279 279-4-5-10-15-13-22-13-24-11-23-11-27-10-28-10-35-8-37-5-33-3-35v-62l3-34 5-34 6-28 9-34 13-38 11-26 14-29 10-19 14-23z" fill="#F42434"/>
</svg>
