<?xml version="1.0" encoding="UTF-8"?>
<!DOCTYPE svg PUBLIC "-//W3C//DTD SVG 1.1//EN" "http://www.w3.org/Graphics/SVG/1.1/DTD/svg11.dtd">
<svg xmlns="http://www.w3.org/2000/svg" version="1.1" width="3508px" height="897px" style="shape-rendering:geometricPrecision; text-rendering:geometricPrecision; image-rendering:optimizeQuality; fill-rule:evenodd; clip-rule:evenodd" xmlns:xlink="http://www.w3.org/1999/xlink">
<g><path style="opacity:0.996" fill="#009bdb" d="M 524.5,70.5 C 566.168,70.3333 607.835,70.5 649.5,71C 653.527,71.427 656.027,73.5936 657,77.5C 657.5,103.498 657.667,129.498 657.5,155.5C 688.223,162.198 716.89,173.864 743.5,190.5C 761.653,172.847 779.653,155.014 797.5,137C 801.5,135 805.5,135 809.5,137C 839,166.5 868.5,196 898,225.5C 900,229.167 900,232.833 898,236.5C 879.792,254.374 861.959,272.541 844.5,291C 860.763,317.953 872.43,346.787 879.5,377.5C 904.509,377.167 929.509,377.5 954.5,378.5C 955.5,382.833 958.167,385.5 962.5,386.5C 963.667,427.163 963.833,467.829 963,508.5C 957.601,509.622 954.768,512.955 954.5,518.5C 929.5,518.5 904.5,518.5 879.5,518.5C 872.252,548.992 860.585,577.658 844.5,604.5C 861.819,622.319 879.319,639.986 897,657.5C 899.828,661.302 900.161,665.302 898,669.5C 868.167,699.333 838.333,729.167 808.5,759C 804.705,759.837 801.039,759.504 797.5,758C 779.667,740.167 761.833,722.333 744,704.5C 717.306,721.177 688.64,733.177 658,740.5C 657.667,766.5 657.333,792.5 657,818.5C 656.215,820.286 655.049,821.786 653.5,823C 610.25,824.656 566.917,824.989 523.5,824C 520.427,823.261 518.26,821.428 517,818.5C 516.829,792.261 516.329,766.094 515.5,740C 485.098,732.647 456.598,720.813 430,704.5C 412.167,722.333 394.333,740.167 376.5,758C 373.298,759.483 369.964,759.817 366.5,759C 336.028,729.528 305.861,699.695 276,669.5C 273.839,665.302 274.172,661.302 277,657.5C 294.681,639.986 312.181,622.319 329.5,604.5C 313.74,577.895 302.073,549.562 294.5,519.5C 268.84,518.667 243.173,518.167 217.5,518C 215.413,517.208 213.579,516.041 212,514.5C 210.344,470.584 210.011,426.584 211,382.5C 212.167,380.667 213.667,379.167 215.5,378C 241.831,377.5 268.165,377.333 294.5,377.5C 301.57,346.787 313.237,317.953 329.5,291C 312.041,272.541 294.208,254.374 276,236.5C 273.839,232.302 274.172,228.302 277,224.5C 306.528,194.639 336.361,165.139 366.5,136C 369.964,135.183 373.298,135.517 376.5,137C 394.347,155.014 412.347,172.847 430.5,190.5C 457.11,173.864 485.777,162.198 516.5,155.5C 516.333,129.498 516.5,103.498 517,77.5C 518.211,73.6664 520.711,71.333 524.5,70.5 Z"/></g>
<g><path style="opacity:0.99" fill="#2b3845" d="M 1534.5,156.5 C 1569.14,152.661 1601.81,158.828 1632.5,175C 1666.28,198.036 1684.45,230.203 1687,271.5C 1688.99,302.5 1688.99,333.5 1687,364.5C 1681.8,426.356 1648.97,463.856 1588.5,477C 1561.62,481.08 1534.96,480.08 1508.5,474C 1462.88,460.378 1435.38,430.211 1426,383.5C 1424.63,375.882 1423.63,368.215 1423,360.5C 1422.33,332.167 1422.33,303.833 1423,275.5C 1428.46,205.883 1465.62,166.216 1534.5,156.5 Z M 1541.5,213.5 C 1568.17,209.558 1591,216.891 1610,235.5C 1618.29,246.084 1623.29,258.084 1625,271.5C 1626.56,298.811 1626.9,326.144 1626,353.5C 1624.83,392.718 1605,415.551 1566.5,422C 1542.37,425.508 1521.2,419.341 1503,403.5C 1492.56,391.862 1486.56,378.195 1485,362.5C 1482.74,330.792 1483.07,299.126 1486,267.5C 1492.25,236.812 1510.75,218.812 1541.5,213.5 Z"/></g>
<g><path style="opacity:0.99" fill="#2b3845" d="M 1854.5,156.5 C 1889.14,152.661 1921.81,158.828 1952.5,175C 1986.58,198.294 2004.74,230.794 2007,272.5C 2008.99,303.166 2008.99,333.833 2007,364.5C 2001.81,426.347 1968.98,463.847 1908.5,477C 1879.11,481.609 1850.11,479.942 1821.5,472C 1779.88,456.616 1754.71,427.116 1746,383.5C 1744.46,375.904 1743.46,368.237 1743,360.5C 1742.68,346.493 1742.18,332.493 1741.5,318.5C 1742.18,304.174 1742.68,289.841 1743,275.5C 1748.45,205.887 1785.62,166.22 1854.5,156.5 Z M 1861.5,213.5 C 1888.17,209.558 1911,216.891 1930,235.5C 1938.29,246.084 1943.29,258.084 1945,271.5C 1946.55,298.479 1946.88,325.479 1946,352.5C 1945.14,392.124 1925.3,415.29 1886.5,422C 1861.81,425.545 1840.31,419.045 1822,402.5C 1812.26,390.971 1806.6,377.637 1805,362.5C 1803,332.833 1803,303.167 1805,273.5C 1809.32,239.686 1828.15,219.686 1861.5,213.5 Z"/></g>
<g><path style="opacity:0.992" fill="#2b3845" d="M 1133.5,160.5 C 1180.83,160.333 1228.17,160.5 1275.5,161C 1337.47,167.971 1364.97,202.471 1358,264.5C 1352.49,284.005 1340.99,298.839 1323.5,309C 1356.19,328.55 1370.02,357.384 1365,395.5C 1359.12,433.049 1337.95,457.215 1301.5,468C 1291.02,470.877 1280.36,472.544 1269.5,473C 1225.17,473.667 1180.83,473.667 1136.5,473C 1126.57,471.739 1120.4,466.239 1118,456.5C 1117.33,363.167 1117.33,269.833 1118,176.5C 1120.69,168.65 1125.85,163.316 1133.5,160.5 Z M 1188.5,208.5 C 1211.84,208.333 1235.17,208.5 1258.5,209C 1288.39,214.251 1299.89,231.751 1293,261.5C 1287.48,276.028 1276.98,284.528 1261.5,287C 1237.86,288.569 1214.19,288.903 1190.5,288C 1184.78,287.285 1181.28,284.118 1180,278.5C 1179.33,258.5 1179.33,238.5 1180,218.5C 1181.29,213.721 1184.12,210.388 1188.5,208.5 Z M 1188.5,335.5 C 1212.84,335.333 1237.17,335.5 1261.5,336C 1282.11,338.281 1294.94,349.447 1300,369.5C 1304.47,392.804 1296.3,409.971 1275.5,421C 1271.94,422.408 1268.28,423.408 1264.5,424C 1238.83,424.667 1213.17,424.667 1187.5,424C 1183.5,422.514 1181,419.68 1180,415.5C 1179.33,392.167 1179.33,368.833 1180,345.5C 1181.29,340.721 1184.12,337.388 1188.5,335.5 Z"/></g>
<g><path style="opacity:0.99" fill="#2b3845" d="M 2089.5,160.5 C 2100.17,160.333 2110.84,160.5 2121.5,161C 2126.74,162.239 2130.91,165.072 2134,169.5C 2175.58,234.331 2216.92,299.331 2258,364.5C 2258.02,301.13 2258.68,237.797 2260,174.5C 2262.62,167.609 2267.46,163.109 2274.5,161C 2283.83,160.333 2293.17,160.333 2302.5,161C 2310.33,163.5 2315.5,168.667 2318,176.5C 2318.67,269.833 2318.67,363.167 2318,456.5C 2315.26,465.793 2309.1,471.293 2299.5,473C 2290.83,473.667 2282.17,473.667 2273.5,473C 2266.86,472.261 2261.69,469.094 2258,463.5C 2216.42,400.004 2175.08,336.337 2134,272.5C 2133.67,334.167 2133.33,395.833 2133,457.5C 2130.07,466.547 2123.9,471.714 2114.5,473C 2107.17,473.667 2099.83,473.667 2092.5,473C 2081.42,470.584 2075.25,463.751 2074,452.5C 2073.33,361.833 2073.33,271.167 2074,180.5C 2075.59,170.946 2080.76,164.28 2089.5,160.5 Z"/></g>
<g><path style="opacity:0.986" fill="#2b3845" d="M 2408.5,160.5 C 2418.51,160.334 2428.51,160.5 2438.5,161C 2445.57,163.072 2450.41,167.572 2453,174.5C 2454.31,207.439 2454.98,240.439 2455,273.5C 2486.7,240.134 2518.03,206.468 2549,172.5C 2553.06,167.095 2558.23,163.262 2564.5,161C 2582.83,160.333 2601.17,160.333 2619.5,161C 2625.57,166.281 2626.07,172.114 2621,178.5C 2584,219.167 2547,259.833 2510,300.5C 2504.93,305.64 2504.27,311.307 2508,317.5C 2549.33,364.167 2590.67,410.833 2632,457.5C 2635.31,464.62 2633.48,469.787 2626.5,473C 2609.5,473.667 2592.5,473.667 2575.5,473C 2571.53,472.517 2567.87,471.184 2564.5,469C 2527.63,429.133 2491.13,388.966 2455,348.5C 2454.97,385.547 2454.31,422.547 2453,459.5C 2449.47,467.032 2443.64,471.532 2435.5,473C 2427.5,473.667 2419.5,473.667 2411.5,473C 2401.33,470.833 2395.17,464.667 2393,454.5C 2392.33,362.833 2392.33,271.167 2393,179.5C 2394.41,169.978 2399.57,163.644 2408.5,160.5 Z"/></g>
<g><path style="opacity:0.988" fill="#2b3845" d="M 2704.5,160.5 C 2769.5,160.333 2834.5,160.5 2899.5,161C 2901.62,162.122 2903.46,163.622 2905,165.5C 2906.61,178.43 2906.94,191.43 2906,204.5C 2904.83,208.333 2902.33,210.833 2898.5,212C 2851.5,212.333 2804.5,212.667 2757.5,213C 2753.92,214.916 2751.42,217.749 2750,221.5C 2749.33,241.5 2749.33,261.5 2750,281.5C 2751.5,285.667 2754.33,288.5 2758.5,290C 2802.17,290.333 2845.83,290.667 2889.5,291C 2893,291.833 2895.17,294 2896,297.5C 2896.67,309.5 2896.67,321.5 2896,333.5C 2894.88,335.624 2893.38,337.457 2891.5,339C 2846.89,340.318 2802.23,340.985 2757.5,341C 2753.57,342.593 2751.07,345.427 2750,349.5C 2749.33,370.167 2749.33,390.833 2750,411.5C 2750.67,415.499 2752.83,418.332 2756.5,420C 2805.56,420.014 2854.56,420.681 2903.5,422C 2906,423.167 2907.83,425 2909,427.5C 2909.67,440.5 2909.67,453.5 2909,466.5C 2907.88,468.624 2906.38,470.457 2904.5,472C 2838.89,473.656 2773.22,473.989 2707.5,473C 2696.88,470.712 2690.71,464.212 2689,453.5C 2688.33,362.5 2688.33,271.5 2689,180.5C 2690.59,170.946 2695.76,164.28 2704.5,160.5 Z"/></g>
<g><path style="opacity:0.989" fill="#2b3845" d="M 2987.5,160.5 C 3030.5,160.333 3073.5,160.5 3116.5,161C 3191.26,170.348 3222.42,212.181 3210,286.5C 3201.31,315.36 3182.81,335.026 3154.5,345.5C 3176,383.167 3197.5,420.833 3219,458.5C 3220.43,463.757 3219.26,468.257 3215.5,472C 3199.9,473.62 3184.23,473.953 3168.5,473C 3160.02,471.19 3153.85,466.357 3150,458.5C 3131.63,424.254 3113.13,390.087 3094.5,356C 3077.17,355.333 3059.83,355.333 3042.5,356C 3039.9,356.883 3037.73,358.383 3036,360.5C 3034.68,391.414 3034.01,422.414 3034,453.5C 3032.17,464.667 3025.67,471.167 3014.5,473C 3004.02,474.133 2993.68,473.467 2983.5,471C 2977.35,467.521 2973.52,462.354 2972,455.5C 2971.33,362.833 2971.33,270.167 2972,177.5C 2974.28,169.056 2979.45,163.389 2987.5,160.5 Z M 3043.5,210.5 C 3063.84,210.333 3084.17,210.5 3104.5,211C 3138.15,215.406 3152.65,234.572 3148,268.5C 3143.52,288.64 3131.02,300.14 3110.5,303C 3089.19,304.557 3067.86,304.89 3046.5,304C 3041.1,303.883 3037.26,301.383 3035,296.5C 3034.33,270.5 3034.33,244.5 3035,218.5C 3036.44,214.218 3039.28,211.551 3043.5,210.5 Z"/></g>
<g><path style="opacity:1" fill="#fdfdfe" d="M 568.5,267.5 C 645.074,263.033 703.574,293.033 744,357.5C 770.334,406.529 774.667,457.529 757,510.5C 734.983,565.516 695.816,602.349 639.5,621C 563.281,640.266 499.114,620.766 447,562.5C 409.218,513.268 397.885,458.268 413,397.5C 438.459,322.533 490.292,279.199 568.5,267.5 Z"/></g>
<g><path style="opacity:1" fill="#2b3846" d="M 578.5,328.5 C 612.21,328.406 633.71,344.406 643,376.5C 645.186,401.961 635.686,421.794 614.5,436C 587.22,450.134 563.054,445.968 542,423.5C 522.749,398.551 522.749,373.551 542,348.5C 552.299,338.27 564.466,331.603 578.5,328.5 Z"/></g>
<g><path style="opacity:0.866" fill="#2b3845" d="M 3262.5,422.5 C 3286.31,421.477 3297.48,432.81 3296,456.5C 3290.5,473.172 3279,480.006 3261.5,477C 3244.73,470.971 3238.23,459.138 3242,441.5C 3245.87,431.786 3252.71,425.453 3262.5,422.5 Z M 3265.5,426.5 C 3284.63,427.464 3293.13,437.464 3291,456.5C 3285.27,470.283 3275.1,475.45 3260.5,472C 3251.2,467.681 3246.2,460.348 3245.5,450C 3247.05,437.632 3253.71,429.799 3265.5,426.5 Z M 3264.5,439.5 C 3269.39,438.314 3272.73,439.981 3274.5,444.5C 3272.07,447.917 3268.74,449.25 3264.5,448.5C 3264.5,445.5 3264.5,442.5 3264.5,439.5 Z"/></g>
<g><path style="opacity:0.93" fill="#2b3845" d="M 3259.5,435.5 C 3264.51,435.334 3269.51,435.501 3274.5,436C 3279.07,438.541 3280.57,442.375 3279,447.5C 3278.07,450.102 3276.23,451.602 3273.5,452C 3276.29,455.746 3278.96,459.579 3281.5,463.5C 3279.58,464.641 3277.58,464.808 3275.5,464C 3272.96,461.094 3270.8,457.927 3269,454.5C 3267.89,452.963 3266.39,452.297 3264.5,452.5C 3264.5,456.5 3264.5,460.5 3264.5,464.5C 3262.83,464.5 3261.17,464.5 3259.5,464.5C 3259.5,454.833 3259.5,445.167 3259.5,435.5 Z M 3264.5,439.5 C 3264.5,442.5 3264.5,445.5 3264.5,448.5C 3268.74,449.25 3272.07,447.917 3274.5,444.5C 3272.73,439.981 3269.39,438.314 3264.5,439.5 Z"/></g>
<g><path style="opacity:1" fill="#2b3846" d="M 510.5,544.5 C 509.833,560.167 509.167,575.833 508.5,591.5C 490.473,581.646 474.639,568.979 461,553.5C 460.333,538.5 460.333,523.5 461,508.5C 467.602,478.899 485.768,461.065 515.5,455C 562.167,454.333 608.833,454.333 655.5,455C 683.932,460.766 702.099,477.599 710,505.5C 711.438,522.478 711.771,539.478 711,556.5C 696.966,571.71 680.799,584.043 662.5,593.5C 661.667,577.177 661.167,560.844 661,544.5C 656.667,539.167 652.333,539.167 648,544.5C 647.5,563.164 647.333,581.83 647.5,600.5C 606.043,615.151 564.71,614.818 523.5,599.5C 523.667,581.164 523.5,562.83 523,544.5C 520.839,540.876 517.672,539.709 513.5,541C 512.29,542.039 511.29,543.206 510.5,544.5 Z"/></g>
<g><path style="opacity:0.997" fill="#029bdb" d="M 1111.5,506.5 C 1813.17,506.5 2514.83,506.5 3216.5,506.5C 3216.5,580.833 3216.5,655.167 3216.5,729.5C 2514.83,729.5 1813.17,729.5 1111.5,729.5C 1111.5,655.167 1111.5,580.833 1111.5,506.5 Z"/></g>
<g><path style="opacity:1" fill="#fefefe" d="M 1948.5,528.5 C 1972.29,525.678 1994.62,529.844 2015.5,541C 2027.37,548.202 2035.54,558.368 2040,571.5C 2040.67,575.5 2040.67,579.5 2040,583.5C 2039.25,584.126 2038.42,584.626 2037.5,585C 2025.5,585.667 2013.5,585.667 2001.5,585C 2000.07,584.535 1998.9,583.701 1998,582.5C 1992.87,570.184 1983.71,563.017 1970.5,561C 1944.32,558.519 1930.49,570.352 1929,596.5C 1928.33,611.167 1928.33,625.833 1929,640.5C 1928.78,659.927 1937.95,672.094 1956.5,677C 1986.55,680.111 2001.55,666.611 2001.5,636.5C 1991.16,636.666 1980.83,636.5 1970.5,636C 1969.3,635.097 1968.47,633.931 1968,632.5C 1967.33,625.167 1967.33,617.833 1968,610.5C 1968.5,609.333 1969.33,608.5 1970.5,608C 1993.5,607.333 2016.5,607.333 2039.5,608C 2040,608.5 2040.5,609 2041,609.5C 2041.9,626.868 2041.56,644.202 2040,661.5C 2032.12,686.716 2015.28,702.216 1989.5,708C 1971.09,711.522 1952.76,711.189 1934.5,707C 1906.3,698.098 1890.8,678.932 1888,649.5C 1887.33,628.833 1887.33,608.167 1888,587.5C 1890.91,560.931 1904.75,542.764 1929.5,533C 1935.91,531.273 1942.25,529.773 1948.5,528.5 Z"/></g>
<g><path style="opacity:1" fill="#fefefe" d="M 1284.5,703.5 C 1284.67,669.165 1284.5,634.832 1284,600.5C 1283.28,601.044 1282.78,601.711 1282.5,602.5C 1272.01,622.14 1261.51,641.806 1251,661.5C 1249.83,662.667 1248.67,663.833 1247.5,665C 1240.83,665.667 1234.17,665.667 1227.5,665C 1226,663.5 1224.5,662 1223,660.5C 1212.57,641.298 1202.4,621.964 1192.5,602.5C 1192.22,601.711 1191.72,601.044 1191,600.5C 1190.5,634.832 1190.33,669.165 1190.5,703.5C 1190.49,705.017 1189.82,706.184 1188.5,707C 1177.5,707.667 1166.5,707.667 1155.5,707C 1154.33,706.5 1153.5,705.667 1153,704.5C 1152.33,647.5 1152.33,590.5 1153,533.5C 1153.9,532.299 1155.07,531.465 1156.5,531C 1166.17,530.333 1175.83,530.333 1185.5,531C 1187.62,532.122 1189.46,533.622 1191,535.5C 1206.26,563.696 1221.76,591.696 1237.5,619.5C 1253.25,591.661 1268.75,563.661 1284,535.5C 1285.5,534 1287,532.5 1288.5,531C 1298.83,530.333 1309.17,530.333 1319.5,531C 1320.33,531.833 1321.17,532.667 1322,533.5C 1322.67,590.5 1322.67,647.5 1322,704.5C 1321.5,705.667 1320.67,706.5 1319.5,707C 1308.5,707.667 1297.5,707.667 1286.5,707C 1285.18,706.184 1284.51,705.017 1284.5,703.5 Z"/></g>
<g><path style="opacity:1" fill="#fefefe" d="M 1410.5,530.5 C 1424.17,530.333 1437.84,530.5 1451.5,531C 1452.67,532.167 1453.83,533.333 1455,534.5C 1475.72,590.19 1496.22,646.023 1516.5,702C 1516.39,703.895 1515.72,705.562 1514.5,707C 1502.83,707.667 1491.17,707.667 1479.5,707C 1477.62,704.749 1476.12,702.249 1475,699.5C 1471.96,691.263 1468.8,683.096 1465.5,675C 1441.84,674.5 1418.17,674.333 1394.5,674.5C 1391.16,684.197 1387.66,693.864 1384,703.5C 1382.83,704.667 1381.67,705.833 1380.5,707C 1369.17,707.667 1357.83,707.667 1346.5,707C 1345.02,705.701 1344.35,704.034 1344.5,702C 1345.13,698.456 1345.96,694.956 1347,691.5C 1366.55,640.52 1385.55,589.187 1404,537.5C 1405.36,534.314 1407.52,531.981 1410.5,530.5 Z"/></g>
<g><path style="opacity:1" fill="#fefefe" d="M 1541.5,530.5 C 1551.51,530.334 1561.51,530.5 1571.5,531C 1572.42,531.374 1573.25,531.874 1574,532.5C 1596.67,567.833 1619.33,603.167 1642,638.5C 1642.02,603.107 1642.69,567.773 1644,532.5C 1644.75,531.874 1645.58,531.374 1646.5,531C 1656.83,530.333 1667.17,530.333 1677.5,531C 1678.93,531.465 1680.1,532.299 1681,533.5C 1681.67,590.5 1681.67,647.5 1681,704.5C 1680.17,705.333 1679.33,706.167 1678.5,707C 1668.17,707.667 1657.83,707.667 1647.5,707C 1646.07,706.535 1644.9,705.701 1644,704.5C 1621.67,670.5 1599.33,636.5 1577,602.5C 1576.67,636.5 1576.33,670.5 1576,704.5C 1575.5,705.667 1574.67,706.5 1573.5,707C 1562.5,707.667 1551.5,707.667 1540.5,707C 1540,706.5 1539.5,706 1539,705.5C 1538.33,647.833 1538.33,590.167 1539,532.5C 1539.99,531.934 1540.83,531.267 1541.5,530.5 Z"/></g>
<g><path style="opacity:1" fill="#fefefe" d="M 1768.5,530.5 C 1782.17,530.333 1795.84,530.5 1809.5,531C 1810.93,531.465 1812.1,532.299 1813,533.5C 1833.93,589.467 1854.77,645.467 1875.5,701.5C 1875.13,703.459 1874.46,705.293 1873.5,707C 1861.83,707.667 1850.17,707.667 1838.5,707C 1837.67,706.167 1836.83,705.333 1836,704.5C 1832.24,694.6 1828.4,684.766 1824.5,675C 1800.83,674.333 1777.17,674.333 1753.5,675C 1749.59,684.778 1745.76,694.611 1742,704.5C 1741.17,705.333 1740.33,706.167 1739.5,707C 1727.59,707.821 1715.76,707.654 1704,706.5C 1703.4,704.863 1702.9,703.197 1702.5,701.5C 1723.21,645.534 1744.05,589.534 1765,533.5C 1766.15,532.364 1767.31,531.364 1768.5,530.5 Z"/></g>
<g><path style="opacity:1" fill="#fefefe" d="M 2112.5,634.5 C 2111.5,647.99 2111.17,661.656 2111.5,675.5C 2140.5,675.5 2169.5,675.5 2198.5,675.5C 2200.17,676.343 2201.34,677.676 2202,679.5C 2202.67,687.5 2202.67,695.5 2202,703.5C 2201.53,704.931 2200.7,706.097 2199.5,707C 2158.17,707.667 2116.83,707.667 2075.5,707C 2075,706.5 2074.5,706 2074,705.5C 2072.34,648.249 2072.01,590.916 2073,533.5C 2073.9,532.299 2075.07,531.465 2076.5,531C 2116.5,530.333 2156.5,530.333 2196.5,531C 2197.93,531.465 2199.1,532.299 2200,533.5C 2200.67,542.167 2200.67,550.833 2200,559.5C 2199.5,561.333 2198.33,562.5 2196.5,563C 2168.17,563.5 2139.84,563.667 2111.5,563.5C 2111.5,576.5 2111.5,589.5 2111.5,602.5C 2137.84,602.333 2164.17,602.5 2190.5,603C 2191.93,603.465 2193.1,604.299 2194,605.5C 2194.67,614.167 2194.67,622.833 2194,631.5C 2193.17,632.333 2192.33,633.167 2191.5,634C 2165.17,634.5 2138.84,634.667 2112.5,634.5 Z"/></g>
<g><path style="opacity:1" fill="#fefefe" d="M 2303.5,643.5 C 2293.35,642.506 2283.01,642.172 2272.5,642.5C 2272.5,662.5 2272.5,682.5 2272.5,702.5C 2272.25,704.17 2271.58,705.67 2270.5,707C 2258.5,707.667 2246.5,707.667 2234.5,707C 2234,706.5 2233.5,706 2233,705.5C 2232.17,647.793 2232.34,590.126 2233.5,532.5C 2234.03,531.808 2234.69,531.308 2235.5,531C 2249,530.833 2262.5,530.667 2276,530.5C 2292.2,530.399 2308.36,530.899 2324.5,532C 2342.57,534.273 2356.73,542.773 2367,557.5C 2370.01,563.537 2372.01,569.87 2373,576.5C 2377.37,604.605 2366.87,624.771 2341.5,637C 2353.46,657.752 2365.29,678.585 2377,699.5C 2377.94,702.347 2377.44,704.847 2375.5,707C 2369.5,707.167 2363.5,707.333 2357.5,707.5C 2350.73,707.629 2344.06,707.129 2337.5,706C 2325.25,685.672 2313.92,664.839 2303.5,643.5 Z"/></g>
<g><path style="opacity:1" fill="#959ca3" d="M 510.5,544.5 C 510.833,560.514 510.499,576.514 509.5,592.5C 508.893,592.376 508.56,592.043 508.5,591.5C 509.167,575.833 509.833,560.167 510.5,544.5 Z"/></g>
<g><path style="opacity:1" fill="#0e9cdb" d="M 2272.5,562.5 C 2287.56,562.066 2302.56,562.566 2317.5,564C 2327.26,568.453 2332.26,576.119 2332.5,587C 2332.21,597.602 2327.21,604.935 2317.5,609C 2302.57,610.451 2287.57,610.951 2272.5,610.5C 2272.5,594.5 2272.5,578.5 2272.5,562.5 Z"/></g>
<g><path style="opacity:1" fill="#079bdb" d="M 1788.5,570.5 C 1797.82,593.626 1806.49,617.126 1814.5,641C 1797.5,641.5 1780.5,641.667 1763.5,641.5C 1771.99,617.86 1780.32,594.194 1788.5,570.5 Z"/></g>
<g><path style="opacity:1" fill="#089bdb" d="M 1429.5,570.5 C 1430.75,572.382 1431.92,574.382 1433,576.5C 1440.81,598.089 1448.31,619.756 1455.5,641.5C 1438.5,641.667 1421.5,641.5 1404.5,641C 1413.26,617.654 1421.59,594.154 1429.5,570.5 Z"/></g>
<g><path style="opacity:1" fill="#80cdec" d="M 1284.5,703.5 C 1283.83,669.833 1283.17,636.167 1282.5,602.5C 1282.78,601.711 1283.28,601.044 1284,600.5C 1284.5,634.832 1284.67,669.165 1284.5,703.5 Z"/></g>
<g><path style="opacity:1" fill="#81cded" d="M 1192.5,602.5 C 1191.83,636.167 1191.17,669.833 1190.5,703.5C 1190.33,669.165 1190.5,634.832 1191,600.5C 1191.72,601.044 1192.22,601.711 1192.5,602.5 Z"/></g>
<g><path style="opacity:1" fill="#81cded" d="M 2303.5,643.5 C 2293.5,643.5 2283.5,643.5 2273.5,643.5C 2273.83,663.34 2273.5,683.007 2272.5,702.5C 2272.5,682.5 2272.5,662.5 2272.5,642.5C 2283.01,642.172 2293.35,642.506 2303.5,643.5 Z"/></g>
<g><path style="opacity:1" fill="#80cded" d="M 2112.5,634.5 C 2112.5,647.833 2112.5,661.167 2112.5,674.5C 2141.34,674.169 2170,674.502 2198.5,675.5C 2169.5,675.5 2140.5,675.5 2111.5,675.5C 2111.17,661.656 2111.5,647.99 2112.5,634.5 Z"/></g>
</svg>
